<svg xmlns="http://www.w3.org/2000/svg" width="1168" height="530pt" viewBox="0 0 876 530"><path d="M617.07 11.996c-.996 4.395-2.398 11.094-18.082 85.957-8.492 40.383-19.683 93.656-24.98 118.445-5.196 24.688-9.492 45.579-9.492 46.38 0 1.097.402 1.097 1.898-.301 2.3-2.098 3.297-5.997 13.09-54.075 11.488-55.972 37.367-179.515 40.465-193.007.199-1.102-.2-2.899-.899-4-1.398-1.801-1.5-1.801-2 .601zM303.34 33.383c.3.703 2.598 1.601 5.195 2 4.996.699 95.52 7.597 99.715 7.597 2.098 0 4.398-2.398 3.297-3.398-.3-.3-97.914-7.195-106.008-7.496-2-.102-2.598.3-2.2 1.297zm100.414 19.293c-4.098 15.492-6.094 24.59-5.594 25.086.297.3.7.3.797.101 1-1.199 7.297-28.886 6.594-28.886-.399 0-1.297 1.699-1.797 3.699zm-236.2 8.996c-1.398 1.297-.597 3.297 1.2 3.297 1.898 0 3.5-2.297 2.398-3.399-.797-.797-2.797-.797-3.597.102zm-2.695 9.293c0 1.3.7 2 1.996 2 1.301 0 2-.7 2-2 0-1.297-.699-1.996-2-1.996-1.296 0-1.996.699-1.996 1.996zm191.836 38.183c-3 1.5-5.195 3.7-6.695 6.297-3.797 6.797-3.895 11.297-.8 23.489 1.198 4.3 5.995 7.199 15.988 9.496 5.593 1.3 18.984 1.5 19.984.3.098-.199 2.195-8.796 4.695-19.09 4.195-17.593 4.395-18.792 2.695-19.69-2.796-1.602-3.894-1.2-4.894 1.597-1.2 3.098-7.793 11.394-9.094 11.394-.496 0-.898-.699-.898-1.699 0-3.597-5.196-10.496-9.293-12.394-5.395-2.399-6.395-2.399-11.688.3zm8.993 3c2.296 3.899 2.496 7.594.699 12.094-1.7 3.899-3.297 5.297-7.094 6.297l-2.898.7.5-6.598c.3-4.797 1-7.496 2.597-9.696 2.2-2.996 2.2-2.996.2-2.996-2.399 0-5.696 4.996-6.594 9.992-.899 4.598-1.5 5.5-2.496 3.899-2.598-4.098.296-11.793 5.394-14.89 4.695-2.9 7.395-2.602 9.692 1.198zm-215.215 11.493c-1.399 1.5-.5 4.3 1.398 4.3 1.297 0 1.996-.703 1.996-1.902 0-1.898-2.297-3.496-3.394-2.398zm277.66 6.898c-1.297 6.496-4.895 11.793-9.39 14.094-4.196 2.097-5.298 2.199-17.087 1.597-9.094-.398-12.89-.3-13.39.602-.496.797 3.3 1.098 14.59 1.098 13.488 0 15.687-.2 18.582-2 4.097-2.496 6.996-7.196 7.792-12.793.704-4.797-.199-6.996-1.097-2.598zm-281.258 5.899c0 2.996 2.496 3.398 3.895.597 1.199-2.097.5-3.097-2.098-3.097-1.297 0-1.797.699-1.797 2.5zm12.887 24.585c-1.598 1.7-3.395 5-3.996 7.2-1.297 4.797-.399 14.59 1.398 16.39.7.7 4.899 1.5 9.395 1.899l8.191.699 1.598-5.695c2.5-8.399 1.101-15.094-4.297-20.891-3.696-3.898-8.39-3.7-12.29.398zm13.691 4.297c2.195 4.399 1.2 9.996-2.101 12.196-3.196 2.101-6.094.5-7.391-4.098-2.5-9.094 5.695-16.094 9.492-8.098zm-10.191 24.989c1.597.8 3.797 1.101 4.996.8 1.894-.5 1.894-.597 0-1.297-1-.402-3.2-.8-4.899-.703h-2.996zm564.414 6c-1.598 1.296-3.496 3.496-4.196 4.898l-1.398 2.598-2.898-3c-2.2-2.2-3.895-2.899-6.793-2.899-2 0-4.196.602-4.696 1.2-1.398 2-4.597 23.39-3.898 26.289.7 2.597 5.797 6.496 8.691 6.496.903 0 3.297-1.098 5.399-2.5 1.996-1.496 3.797-2.496 3.996-2.297.097.199 1 1.797 1.898 3.597 1.797 3.5 6.895 7.196 9.89 7.196 5.997 0 12.188-8.793 13.188-18.989l.5-5.5-1.5 4c-1.695 4.399-4.894 8.196-7.59 8.997-2.8.898-7.496-2.102-9.292-5.899-3.899-8.195-2.797-18.492 2.398-23.789 2.398-2.398 2.598-2.797.996-2.797-.996 0-3.094 1.098-4.695 2.399zm-11.989 12.293c-.8 8.195-2.296 9.695-4.195 4.296-1.5-4.398.297-8.496 3.996-8.894.399-.102.399 2 .2 4.598zm-255.382 49.976c.8 2.098 6.097 12.992 11.789 24.29l10.293 20.487 14.289 3.5c7.89 1.899 14.887 3.5 15.387 3.5.597 0 1-1.402 1-3 0-2.898-.204-3-4.5-3.199-2.497-.199-7.293-.5-10.688-.898l-6.195-.5-16.188-23.988c-8.89-13.094-16.285-23.891-16.484-23.891-.2 0 .398 1.7 1.297 3.7zm61.847 13.695c-3.097 13.192-3.097 12.594-.8 12.594 1.5 0 2.3-2 4.296-11.394 2.301-10.598 2.399-11.496.801-11.895-1.398-.402-2.097 1.399-4.297 10.695zM350.2 277.07c-4.394 1.5-8.992 2.797-10.191 2.797-1.598 0-2.297.602-2.297 2 0 1.098.598 2 1.297 2 1.199 0 21.683-7.699 22.484-8.398.098-.2-.5-.5-1.5-.797-1-.203-5.394.797-9.793 2.398zm-22.98 21.39c1.699 1.497 5.394 4.895 8.394 7.497l5.395 4.797-4.496 2.797c-2.399 1.5-6.793 3.898-9.59 5.199-5.996 2.797-6.598 4.098-1.899 4.098 3.497 0 21.579 4.597 34.07 8.597 12.489 3.996 12.79 3.496 3.997-8.097-4.195-5.496-8.895-11.293-10.492-12.993l-2.797-2.898-2.7 2.398c-1.496 1.399-2.496 1.997-2.195 1.497.297-.598-4.199-4.297-10.094-8.293-5.792-4-9.19-6-7.593-4.598zm306.937 7.395c-.3 1.399-.898 4.899-1.199 7.797-.5 4.2-.3 5.297.7 4.996 1.698-.597 3-9.992 1.898-12.992l-.899-2.3zm-105.707 3.899l-4.398 3.898 2.5 1c1.398.5 3.797 1.2 5.293 1.598l2.797.7-.7-5.298c-.398-2.898-.796-5.398-.898-5.597-.098-.098-2.2 1.5-4.594 3.699zm-81.633 10.894c-7.093 2.899-6.691 3.899 1.801 4.399l5.395.3.3-3.8c.297-1.996.098-3.695-.402-3.598-.398 0-3.598 1.301-7.094 2.7zm-135.582 8.196c-.402 1.3-.3 2.5.399 2.898 1.699 1.102.199 7.2-1.598 6.899-.8-.2-2.2.699-3 1.898-1.398 2-1.398 2.3 0 2.3.8 0 2-.6 2.7-1.401 1.398-1.797 3.695-1.098 4.296 1.199.301 1 .301-1.7 0-5.797-.601-8.594-1.699-11.594-2.797-7.996zm-102.914 7.898c3.899 3.899 6.996 7.395 6.996 7.797-.101.399-.402 6.797-.898 14.094-.8 12.992-.902 13.191-3.297 13.793-5.695 1.496-16.789-.801-58.652-11.996-10.89-3-17.383-4.297-18.383-3.7-1.3.7-1.2.903.398 1.403 6.996 2.199 58.45 14.89 65.344 16.191l8.594 1.7 19.383-5.598c10.691-3.098 19.582-5.797 19.683-5.996.801-.801-43.164-34.586-45.062-34.586-.598 0 2.097 3.097 5.894 6.898zm92.922 9.793c-2.398.602-5.097 2.5-17.484 12.195-5.195 4.098-12.488 9.395-16.285 11.895l-6.696 4.5 1.598 2.598c4.797 7.297 5.195 7.496 22.48 8.496 13.989.898 15.887 1.199 16.489 2.797.297 1 .797 1.8 1.195 1.8.402 0 3.399.5 6.695 1 3.297.598 27.778 4.399 54.454 8.497 60.75 9.394 43.863 6.796 166.859 25.488 57.95 8.793 110.105 16.691 115.8 17.59 8.692 1.3 10.489 1.398 11.188.3.7-1.199 1.3-4.796 1.102-6.996 0-.3.3-2.3.797-4.398.902-4.098.8-4.5-14.985-32.684-.8-1.5-5.597-10.297-10.691-19.492-5.098-9.195-9.594-17.39-9.992-18.191-.7-1.102-1.297-.801-2.598 1.3-1.797 2.598-1.7 2.797.598 6.895 1.402 2.3 6.097 10.895 10.593 19.09l8.094 14.894-1.898 3.098c-1.102 1.7-3.098 4.2-4.399 5.5l-2.496 2.297-10.094-1.899c-5.593-1.101-10.09-1.8-10.09-1.597 0 .199.598 1.898 1.399 3.695l1.398 3.399-10.191.699c-5.594.402-22.98.5-38.566.203-31.274-.5-37.567-1.402-41.563-6-2.3-2.7-3.398-2.598-3.398.5 0 1-.399 1.8-1 1.8-.5 0-6.395-1.8-13.188-3.898-36.469-11.594-68.64-20.59-69.64-19.59-.2.297.097 1.598.699 2.899.8 1.797 2.097 2.496 5.793 3.098l4.699.699-4.398 4.398c-5.196 5.297-6.395 5.399-23.38 1.899-7.492-1.5-15.386-2.5-20.984-2.5-16.484 0-35.765-3.196-48.457-7.997-4.097-1.496-10.09-3.296-13.289-3.996-9.992-2-13.789-7.695-19.281-28.488-2.2-8.496-2.3-8.695-2.399-4.297v4.7l-5.695.597c-3.2.402-10.191 1.3-15.586 1.899l-9.793 1.3 4.297-4.597c2.399-2.5 6.695-7.196 9.793-10.395 2.996-3.098 5.195-5.598 4.992-5.598-.297.098-1.398.399-2.496.598zm348.403 74.567c3.597 6.695 6.492 12.394 6.293 12.593-.2.2-6.696-.3-14.387-1-12.59-1.097-14.29-1.5-16.285-3.597l-2.2-2.301 3.399 1.203c3.195 1.098 3.496.996 6.594-2.602 1.796-2.097 4.496-6.695 5.992-10.195 1.601-3.496 3.097-6.394 3.398-6.394.301 0 3.496 5.496 7.196 12.293zm0 0"/><path d="M444.121 355.934c-.402.597-.5 1.199-.203 1.496.203.3.703-.2 1-1.098.7-1.7.102-2-.797-.398zm-1.398 3.597c-.102.598-.403 2-.703 2.996-.497 1.7-.497 1.7.601 0 .598-.996.899-2.297.598-2.996-.297-.898-.496-.898-.496 0zm154.765 17.293c0 .899 9.992 2.297 10.79 1.496.3-.297.3-.699.1-.898-.8-.7-10.89-1.3-10.89-.598zM840.98 515.156l-32.773 14.094 5.496.3c5.195.302 7.395-.5 33.57-11.894 21.684-9.496 27.977-12.593 27.977-13.992 0-1-.3-2-.7-2.2-.5-.202-15.585 5.997-33.57 13.692zm0 0"/></svg>