<svg xmlns="http://www.w3.org/2000/svg" width="904" height="547pt" viewBox="0 0 678 547"><path d="M68 184.984c0 2.102 2.602 2.703 4.3.903 1.598-1.703 1.598-1.801-1.3-1.801-1.602 0-3 .398-3 .898zm256 1.102c-1.2.8-1 1 .8 1 1.302 0 2-.402 1.7-1-.7-1.203-.602-1.203-2.5 0zm-143.8 1.3c-.598.598-1.302 2.4-1.7 3.903-.398 1.5-1.398 2.899-2.3 3.102-1.5.398-1.5.5-.098.597.898 0 2.199 1.203 2.898 2.602 1.5 2.8 3.5 3.3 4.398 1 .403-1.102-.097-1.5-1.898-1.5-1.898 0-2.5-.5-2.5-2.102 0-2.199 2.2-4.902 3.898-4.902.602 0 1.102-.899 1.102-2 0-2.2-2.2-2.703-3.8-.7zm54.6 1c-1.1.9-1.402 1.802-.8 2.7 1.2 2.004 6.2-.297 5.398-2.5-.699-1.8-2.296-1.902-4.597-.2zm109.2.7c0 1.101.7 2 1.5 2s1.5-.899 1.5-2c0-1.102-.7-2-1.5-2s-1.5.898-1.5 2zm44.3 1.101c-1.3 3.403-1 4.903 1.2 4.903.7 0 1.5.597 1.7 1.2.902 2.3-.302 3.8-2.802 3.8-2.796 0-3.199 1.504-.699 2.402 1 .403 3.102-.3 5.2-1.902 2.5-1.7 3.703-2.098 4-1.3 1.101 3.304 5.601 3.702 8.203.702 2.296-2.703 3.5-8.703 2.199-10.804-1.801-2.903-4.903-2.403-7.7 1.199-1.402 1.902-2.601 3.902-2.601 4.601 0 .801-.898.7-3-.398-3.5-1.8-3.898-3.504-1-4.203 3.102-.801 2.5-3.301-.8-3.301-2.2 0-3 .7-3.9 3.101zm16.7 2.7c0 3.902-2.8 7.605-4.5 6.203-1.398-1.2-1.2-2.602.8-6.8 1.5-3.102 3.7-2.802 3.7.597zm-26.102-4.602c-.097.2-.296 2.203-.296 4.504-.102 2.399-1 5.102-2 6.203-2.102 2.399-1.403 4.102 1.898 4.102 2 0 2.398-.602 2.8-4.805.302-2.601.7-5.8.9-7.203.198-1.7-.2-2.5-1.4-2.8-1-.2-1.902-.2-1.902 0zm-263.5 2.504c-.097 1-.398 3-.898 4.5-1 3.902.8 3.5 2.3-.398.9-2.602.9-3.504-.1-4.504-1-1.102-1.302-1-1.302.402zm28.602 0c0 1.2.3 1.399.8.7.4-.7 1.802-1.403 3.2-1.704 2.102-.398 2-.398-.7-.597-2.5-.102-3.3.3-3.3 1.601zm46.5-.601c-1.2 1.8.3 2.199 2 .5 1.398-1.403 1.398-1.602.102-1.602-.801 0-1.801.5-2.102 1.101zm5.3 1.898c.2 1.601.598 3.004.802 3.004.199 0 .398-1.403.398-3.004 0-1.7-.398-3-.8-3-.5 0-.7 1.3-.4 3zm63-2.3c.7.3 1.598.202 1.9-.099.402-.3-.2-.601-1.302-.5-1.097 0-1.398.301-.597.598zm30 0c.7.3 1.598.202 1.9-.099.402-.3-.2-.601-1.302-.5-1.097 0-1.398.301-.597.598zm7.802.901c-.903 2.403-.801 2.602 1.199 1.5 1-.601 2.8-.699 4-.398 2.5.598 3-1.203.597-2.101-2.796-1.102-5.199-.602-5.796 1zm8.398-.101c0 .8.7 1.5 1.5 1.5s1.5-.7 1.5-1.5-.7-1.5-1.5-1.5-1.5.7-1.5 1.5zm118.5.203c-3.8 3.7-4.602 10.602-1.602 12.305 2.801 1.398 3.801 1.3 6-1.102l2-2.101 2.204 2.101c2.796 2.602 4 2.602 6.796.301 2.602-2.102 4.403-8.805 3-11.406-1.199-2.2-5.199-2.403-6.898-.301-.7.8-1.7 1.5-2.2 1.5-.5 0-1.6-.7-2.402-1.5-2-2-4.898-1.899-6.898.203zm4.7 2.5c.902 2.602-.802 6.3-3 6.602-1.7.3-2.2-.2-2.2-1.7 0-4.304 4.102-8.004 5.2-4.902zm11 2.3c-.5 4.802-3.598 7.306-4.802 4-1-2.398 1.602-7.6 3.5-7.3 1.102.3 1.5 1.2 1.301 3.3zm-313.598-3.901c-1.102 3-.704 4.203 1.398 3.703 2.3-.602 2.7-3.805.602-4.602a1.55 1.55 0 00-2 .899zm84.398.601c0 1.598.5 2.8 1 2.8 1.3 0 1.3-2 0-4.003-.8-1.2-1-.899-1 1.203zm-108.7.399c-.902 2.5 1.302 4.003 2.598 1.601 1-1.902.602-3.203-1.097-3.203-.5 0-1.102.703-1.5 1.601zm52.098-.098c-.699 1.8.301 3.5 2.102 3.5.7 0 1.602.601 1.8 1.2 1 2.503.7-1-.3-3.602-1.102-2.899-2.8-3.403-3.602-1.098zm66.704-.602c-1.102.7-1.204 1.5-.5 3.102.898 2 1 2 2.097-1 1.2-3.102.801-3.602-1.597-2.102zm60.199 2.102c-1.102 3.902-.602 6.203.898 3.601.5-.902.801-2.902.602-4.402-.403-2.601-.403-2.601-1.5.8zm-66.2-1.102c-1.203.801-1.203 1.2.2 2.602 1.597 1.5 1.699 1.5 1.699-.903 0-2.898 0-2.898-1.898-1.699zm11.899.5c0 2.2 2.7 2.703 3.3.5.4-1.398 0-1.902-1.402-1.902-1 0-1.898.601-1.898 1.402zm24.5.102c-.3.8-.7 2.2-1 3-.8 2.601 1.5 1.601 2.5-1.102 1.2-3.199 1.2-3.402 0-3.402-.602 0-1.3.703-1.5 1.504zm-173.102 1.898c-.296 1.5-.199 3.203.301 3.703.7.7 1.301.098 1.7-1.703.402-1.5.3-3.097-.297-3.699-.704-.7-1.204-.101-1.704 1.7zm58 .102c-.398.8-.296 2.3 0 3.2.602 1.401.903 1.202 2.102-1.099 1.8-3.504 1.8-3.601 0-3.601-.898 0-1.8.7-2.102 1.5zm158.704.097c0 1.102.296 1.403.597.602.301-.7.2-1.601-.097-1.898-.301-.403-.602.199-.5 1.297zM88.5 196.691c-2.898 1.301-2.898 1.301 2.5 1.2 3 0 4.602-.301 3.5-.5-1.102-.301-2.2-.903-2.5-1.301-.3-.403-1.8-.102-3.5.601zm78.7 0c-.7.797-.802 1.399-.302 1.399 1 0 2.5-1.899 2-2.5-.199-.102-1 .3-1.699 1.101zm21.402.7c-.903 3.3-.801 3.601 1.398 3 2.3-.598 2.5-1.899.602-3.801-1.204-1.2-1.5-1.102-2 .8zm-46.602.8c0 2.399 2.3 2.102 2.8-.402.2-1-.3-1.7-1.198-1.7-1 0-1.602.9-1.602 2.102zm90.3-.601c-1.5 1.2-1.5 1.601-.402 2.402 1.704 1.102 5.102.2 5.102-1.402 0-2-2.602-2.5-4.7-1zm51.7.5c0 1.5.7 2 2.7 2h2.6l-2.3-2c-1.3-1.102-2.5-2-2.7-2-.1 0-.3.898-.3 2zm37 .5c0 .8.7 1.5 1.5 1.5s1.5-.7 1.5-1.5-.7-1.5-1.5-1.5-1.5.7-1.5 1.5zm86.602 3.101c-.403 1.102-.102 1.403 1.097 1.204.903-.204 1.801-.903 2.102-1.602.597-1.8-2.5-1.5-3.2.398zm-343.5 59.829c-.602.699-1.403 3.5-1.704 6.203l-.699 4.902 2.2-1.902c1.5-1.301 1.8-2.301 1.101-3-1.602-1.602-1.2-3.703 1.2-5.703 1.6-1.403 1.698-1.903.6-1.903-.902 0-2.1.602-2.698 1.403zm5.5.5c-.403.601-.204 1.101.296 1.101.602 0 1.102.8 1.204 1.7 0 1 .296 1.3.5.6.796-1.8-1.102-4.901-2-3.401zm94.898.699c-1.602 1.203-1.8 1.8-.7 3.402.9 1.5.9 2.5 0 4.504-.6 1.398-1.5 2.5-2 2.5-.402 0-.8.7-.8 1.5 0 1 1 1.5 2.898 1.5 2.704 0 3-.3 3-3.3 0-1.7.301-5.102.704-7.505.699-4.5.097-5-3.102-2.601zm22 2.101c-1.398 1.5-2.5 3.602-2.5 4.602 0 1.601-.2 1.601-3 .203-3.398-1.8-4-4.504-1-4.504 1.102 0 2-.5 2-1 0-.601-1.3-1-2.8-1-2.098 0-3.302.7-4.302 2.602-1.199 2.398-1.199 2.8 1 4.5 2.801 2.203 2.204 4.902-1.097 4.902-2.102.102-2.2.102-.403 1.102 1.403.898 2.403.699 4.704-1 3.398-2.504 4.199-2.602 5.898-.602 3.5 4.203 10-.7 10-7.504 0-3.101-.398-3.902-2.2-4.402-3.402-.899-3.5-.801-6.3 2.101zm5.5 3.703c0 3.5-2.102 6.301-4 5.102-1.398-.8-1.3-4.102.2-6.504 2-3.101 3.8-2.398 3.8 1.402zm18.3-2.601c-3 3.601-3.198 9.805-.3 10.703 2.3.703 6-.2 6-1.598 0-1.402 2.602-1.101 4 .598 4.102 4.902 12.7-3.602 10.5-10.402-.5-1.602-1.5-2.102-4.102-2.102-1.898 0-3.398.399-3.398.899 0 1.703-3.398 2.203-4.602.703-1.699-2.504-5.597-1.903-8.097 1.199zm17.302.7c.898 2.202-1.801 7.605-3.602 7.202-2.8-.5-.8-8.703 2.2-8.703.5 0 1.1.7 1.402 1.5zM216 267.823c0 3.801-1.3 6.301-3.102 6.301-2.097 0-2.5-2.902-.898-6.102 1.3-2.402 4-2.503 4-.199zm-137.3.7c.1 1.699.198 3.699.198 4.3.102.7.602 1.301 1.102 1.301 1.5 0 1.2-7.703-.2-8.305-.902-.3-1.198.5-1.1 2.703zm32.698-2.602c-.597.398-1.398 1.7-1.796 2.902-.903 2.801-3.602 3-3.602.399 0-2.5-2-3.801-3-2.102-1.102 1.703.2 5.102 2.5 6.504 1.3.7 1.898.7 2.2-.2.198-.702 1-1 1.698-.702.704.3 1.801-.598 2.5-1.899 1.5-2.8 1.102-6.004-.5-4.902zm12.204.601c.296.899 1.097 1.598 1.597 1.598 1.301 0 .5-2.3-1-2.8-.699-.2-1 .199-.597 1.202zm12.699 3.102c0 2.2.199 3 .398 1.7.2-1.2.2-3 0-4.005-.3-.898-.5.102-.398 2.305zM99 270.422c0 1.504.398 2.703.898 2.703 1.704 0 1.903-1.5.5-3.5-1.296-1.8-1.398-1.8-1.398.797zm40-.399c0 1.5.5 1.801 2.102 1.403 1.199-.301 2.5 0 2.898.699 1 1.7 3 .398 3-2.102 0-2.199-1-2.402-2.898-.699-1.102 1-1.403 1-1.801 0-.7-1.902-3.301-1.402-3.301.7zm-52 1.602c0 .8.5 1.5 1 1.5.602 0 1-.7 1-1.5s-.398-1.5-1-1.5c-.5 0-1 .7-1 1.5zm41.602 1.7c-.801 3-.704 6.902.097 4.804.403-.8 1.2-2.004 1.903-2.504 1.097-.8 1.097-1.3 0-2.8-1.301-1.602-1.403-1.602-2 .5zm-8.5.402c0 1.097.296 1.398.597.597.301-.699.2-1.601-.097-1.898-.301-.403-.602.199-.5 1.3zm76 1.3c-.704 1.2-.704 2.2-.204 2.598.5.3 1.301-.398 1.602-1.598.898-2.8-.102-3.601-1.398-1zM61.699 288.531c-.8 2.102.301 2.703 1.903 1.102 1.796-1.703 1.796-2.5 0-2.5-.801 0-1.602.597-1.903 1.398zm-1.597 5.203c0 1.102.296 1.399.597.602.301-.703.2-1.602-.097-1.902-.301-.399-.602.199-.5 1.3zm21.597-.902c-1.199 1.203-.699 2.203.801 1.703.8-.402 1.5-1 1.5-1.5 0-1.101-1.398-1.203-2.3-.203zm4.301.8c1.2 1.5 3 1.204 3-.597 0-.5-1-.902-2.102-.902-1.796 0-1.898.199-.898 1.5zm25.3.204c-1.8.7-1.6 4.3.2 4.3.898 0 1.5-.902 1.5-2.5 0-1.402-.102-2.503-.2-2.402-.198 0-.902.301-1.5.602zm12 3.3c-1.198 4.7-.1 5.301 1.7.9.8-1.9.898-3.403.3-4-.5-.5-1.3.597-2 3.1zm-26.3-1.1c0 2.5 2 3.1 4.2 1.198 2.1-1.8 1.402-3.101-1.802-3.101-1.699 0-2.398.601-2.398 1.902zm-19 1.198c0 .5.5.704 1 .403.602-.301 1-.801 1-1.102 0-.2-.398-.398-1-.398-.5 0-1 .5-1 1.097zm-28.398 22.614c-.301.398-.602 1.8-.602 3.3 0 2.5.7 2.903 11.898 6.801 6.602 2.301 12.602 4.203 13.301 4.203.801 0 1.801.403 2.301.801.602.5 5.7 2.402 11.5 4.203 5.8 1.801 13.398 4.301 17 5.602 3.602 1.3 7.2 2.402 7.898 2.402 1.801 0 10.903 2.7 18.102 5.3 3 1.103 7.398 2.2 9.7 2.403 2.3.301 4.698 1.098 5.3 1.801.898 1.098.3 1.598-2.602 2.399-3.097.902-4.097.8-5.597-.598-1.602-1.402-1.801-1.402-1.801-.102 0 1.7-3.5 2.703-11.7 3.301-2.902.2-6.5 1-8 1.8-1.5.802-5.5 2.302-8.8 3.302-10.898 3.304-20 8.804-28 16.91-6.8 6.8-7.602 8.004-10.8 15.304-2.2 5.305-2.7 7.805-2.7 14.81 0 7.202.398 9.401 2.7 14.206 1.5 3.102 3.198 6.3 3.698 7.102 1.801 2.203 8 8.406 10.5 10.406 2.403 1.898 14.903 9.703 15.5 9.703.204 0 2.5 1 5.204 2.203 4.796 2.2 7.097 2.899 18.898 6.3 12.398 3.403 16.398 4.103 38.5 6.403 6.3.703 14.3 1.602 17.602 2.203 8 1.2 45.898 1.2 53.796-.101 5.602-.899 16.403-1.899 40.602-4.102 5.2-.398 11.102-1.101 13-1.398 3.602-.602 16.602-2.504 35.5-5.106 6.102-.898 13.3-1.898 16-2.398 10.7-1.902 23.398-4.004 33.5-5.504 5.8-.898 12.102-2 14-2.5 7.3-1.703 21.8-4.004 25.8-4.004 2.2 0 4.302-.398 4.598-.898.301-.5 2.102-1.203 3.903-1.5 1.8-.301 4.8-2.004 6.699-3.805 8.7-7.902 1.7-17.105-22.102-29.113-7.398-3.7-13.898-6.703-14.597-6.703-.7 0-2.7-.598-4.5-1.399-1.801-.8-4.903-2.101-7-3.004-2-.898-4.301-1.597-5.102-1.597-.898 0-1.898-.5-2.199-1-.3-.602-1.398-1.004-2.3-1.004-.9 0-4.598-1.098-8.2-2.301-6.5-2.399-12.398-4.2-23.5-7.203-10.398-2.801-12.7-3.301-26.5-6.5-7.398-1.801-15.102-3.504-17-4.004-5.602-1.3-14.602-3-34-6.402-12.5-2.102-15-2.801-15-3.704 0-1.199-1.898-1.097 35.2-1.398 18-.2 33.198-.602 33.8-1 1.7-1 1.2-4.504-.7-4.606-1-.097-20 0-42.3.102-27.3.102-42.602-.2-46.898-1-5-.902-7-.902-9.403.102-2.097.898-3.199 1-3.398.199-.2-.5-1-1.902-1.801-2.902-1.398-1.801-1.602-1.801-2.898-.2-.704 1-2 1.801-2.801 1.801-.801 0-1.903.5-2.602 1.2-.8.8-1.5.8-2.5-.098-.8-.602-4.5-1.403-8.097-1.801-3.704-.3-6.903-1.004-7.204-1.402-.296-.5-2.296-.899-4.5-.899-2.097 0-3.898-.402-3.898-.902s-4.2-1.2-9.2-1.602c-5.1-.398-9.698-1-10.3-1.3-.5-.4-3.7-1.301-7-2-10.3-2.2-13.8-3-20-4.704-3.3-.898-7.3-2-9-2.398-3.2-.801-9.602-2.903-13-4.102-1.102-.402-8.7-2.902-17-5.605-8.2-2.602-15.398-5.102-16-5.403-.5-.398-2.102-1-3.5-1.3-2.7-.5-9.8-3-16.2-5.5-1.402-.602-2.902-.801-3.198-.5zm103.796 38.816c-.398.8-1.199 1.5-1.898 1.5-.7 0-1.5-.7-1.898-1.5-.403-1.101.097-1.5 1.898-1.5 1.8 0 2.3.399 1.898 1.5zM184 367.168c0 .7.7.7 2.2-.102 2.5-1.398 13.5-.699 25.8 1.602 4.7.902 11 2 14 2.5 3 .402 9.602 1.602 14.5 2.504 5 .898 11.3 2.101 14 2.601 2.8.399 8.602 1.5 13 2.399 4.398.902 10.5 2 13.5 2.504 6.398 1 14.2 3 15.2 3.898.402.403.1 2.703-.7 5.305-1.102 3.8-1.102 4.902-.102 5.703 1.403 1.2 2.801-1.203 4.204-7.305.699-2.8.699-2.8 6.296-2.199 3.102.399 7 1.098 8.602 1.598 1.7.5 5.602 1.601 8.8 2.504 9.7 2.601 17.098 4.601 19.7 5.5 1.398.402 5.398 1.601 9 2.601 3.602.903 6.898 2.102 7.398 2.602.602.402 1.903.8 2.903.8s3.3.602 5 1.403c1.8.7 6.597 2.598 10.699 4.101 8.7 3.2 11.398 4.301 19.3 7.903 3.2 1.402 6 2.601 6.2 2.601.3 0 2.8 1.399 5.7 3.2 6.1 3.601 12.8 10.207 12.8 12.609 0 2.2-3 5.2-5.102 5.2-1 0-3.796.402-6.097 1-5.403 1.202-31.403 6.003-38.801 7.003-3 .5-9.5 1.602-14.5 2.504-4.898.898-12.102 2-16 2.5-3.8.5-8.102 1.2-9.5 1.602-2.5.597-6.898 1.3-22.5 3.3-4.398.598-10.7 1.5-14 2-6.898 1.2-30.102 3.903-39 4.602-43.3 3.3-71.2 3.203-100.7-.399-11.5-1.402-30.8-5.503-34-7.203-1-.5-2.402-.902-3.3-.902-3.398 0-22.5-9.402-29.7-14.707-6.3-4.7-12.698-11.203-12.8-13.004 0-.601-.3-1.3-.7-1.5-2.198-.902-4.3-7.406-4.3-13.207 0-7.402 2.8-13.508 10-21.71 11.102-12.606 25.898-19.911 47.5-23.31 10-1.703 55.5-2.101 55.5-.601zm0 0"/><path d="M177.398 380.875c-1 .8-3.898 9.305-5 14.906-.5 2.7-.296 3.301 1.602 3.903 3.3 1.097 9.2-.403 11.3-2.801 1.302-1.504 1.7-3.102 1.302-5.106-.403-1.898 0-3.8 1-5.402 1.398-2.098 1.398-2.602.097-3.898-1.597-1.704-8.699-2.805-10.3-1.602zm6.602 4.3c0 1.102-.398 2-.898 2s-1.602.302-2.5.602c-1.102.399-1.602 0-1.602-1.402 0-2 1.2-3 3.8-3.102.598-.097 1.2.801 1.2 1.903zm-1.5 7.005c1 1.601-1.898 5.101-4 4.8-2.3-.398-3.3-3.699-1.3-4.902 1.8-1.2 4.5-1.101 5.3.102zm12.2-11.305c-1.2 1.098-.802 2.3.8 2.3.8 0 1.5-.698 1.5-1.5 0-1.6-1.2-2.003-2.3-.8zm-2.2 6.5c-3.2 9.207-3.602 11.105-2.5 12.207.8.8 1.398.602 2.3-.898 1.5-2.704 3.4-9.907 2.9-11.309-.5-1.598-2.098-1.5-2.7 0zm6.2 3.703c-3.4 9.805-1.2 12.707 2.8 3.602 1.8-4 3-5.504 4.5-5.504 2.398 0 2.5.902.5 5.703-1.2 2.902-1.3 3.805-.3 4.402 1.5.903 3.8-.8 3.8-2.8 0-2.301 3.3-7.305 4.8-7.305 1 0 1.2 1.203.7 5.504-.602 4.402-.398 5.504.7 5.504 1.902 0 5.198-10.805 3.902-12.407-.704-.8-4.5-1.3-10.301-1.402l-9.403-.098zm26.8-2.3c-2.102 2.1-2.5 3.402-2.3 6.702l.3 4.204 5.102.3 5.199.297 1.597-4.699c2.102-6.406 2-8.105-.597-8.805-4.301-1.101-6.7-.601-9.301 2zm7 1.5c.398.5.102 2.3-.5 4.003-1.5 3.5-6 4.2-6 .899 0-3.903 4.898-7.602 6.5-4.903zm9.8-.301c-3.402 4.203-3.902 8.003-1.402 10.406 1.204 1 3.102 1.8 4.301 1.601 2.801-.402 3.602-2.8.903-2.8-1.403 0-2.102-.602-2.102-2.004 0-1.399.7-2 2.2-2 2 0 2-.098.402-1.899-1.403-1.601-1.5-2.004-.204-3.004.801-.699 2.403-1 3.602-.597 1.398.5 2 .199 2-.903 0-1.199-1-1.601-3.7-1.601-2.902 0-4.3.703-6 2.8zm14.4-.399c-.802.899-1.802 2.902-2.2 4.602-.398 1.601-1.102 3.203-1.602 3.5-1.398.902-1.097 4.504.403 4.504.699 0 1.8-1.403 2.398-3 .602-1.704 1.801-3.004 2.7-3.004 1.101 0 1.601.902 1.601 3.004 0 3.8 1.8 3.8 4.898 0 3-3.805 3.903-3.805 3.301 0-.3 2.199 0 3 1.102 3 1.8 0 2.398-1.5 3.3-7.805.797-6.602-1.3-7.602-5.8-2.7-1.7 1.9-3.5 3.5-3.903 3.5-.398 0-.898-1.5-1.097-3.199-.301-3.703-2.7-4.804-5.102-2.402zm21.8 1c-2 1.902-2.602 3.5-2.7 6.602-.1 5.105.302 5.504 5.302 5.504 4.796 0 7.699-2.7 8.5-7.602 1.097-6.605-5.801-9.406-11.102-4.504zm7.3 3.402c.4 2.801-3 6.504-5.1 5.602-2.4-.898-2.098-4.3.5-6.602 2.6-2.203 4.198-1.902 4.6 1zm7.302 5.5c-.602.602-1.102 1.504-1.102 2.004 0 1.2 4.3.399 4.7-.902.5-1.602-2.2-2.5-3.598-1.102zm-188.704 20.012C103.2 420.891 99 433.7 99 435.898c0 .903 1.602 1.301 5.5 1.301 4.7 0 6-.398 8-2.601 2-2.102 2.2-2.903 1.3-4.903-.8-1.898-.698-2.699.598-4 2.102-2.101 2-3.8-.199-5.804-2.199-2-8.199-2.2-9.8-.399zm6.602 4.203c0 2-.5 2.5-2.5 2.5-2.7 0-3.3-1.8-1.3-3.8 2-2.004 3.8-1.403 3.8 1.3zm-2.602 6.102c2.301.898 1.903 3.3-.597 4.3-2.5.903-4.801.403-4.801-1 0-1.199 2.2-3.8 3.2-3.902.3 0 1.3.301 2.198.602zm98.102-9.606c-.3.5.3 1.5 1.5 2.204 3.2 2 2.5 3.8-1.602 3.8-3.597 0-4.898.899-7.097 4.801-2.903 4.902-.903 8.203 4.699 8.203 5.102 0 8.7-3.902 9.602-10.605.5-4.5.296-5.5-1.5-7.301-2.204-2.203-4.602-2.703-5.602-1.102zm1.898 9.606c.602 1.601-.898 5.402-2.699 6.601-1.597 1-3.699-.199-3.699-2.101 0-2.2 2.8-6.102 4.398-6.102.801 0 1.704.7 2 1.602zm19.301-6.805c-1 1-1.699 2.504-1.699 3.301 0 .8-.7 3.203-1.5 5.402-.8 2.203-1.398 5.203-1.5 6.703 0 4.204 2.3 2.504 4-2.898 2-6.203 3.7-6.504 4.5-.902 1.2 7.605 6 8.804 7.7 2 .402-1.598 1.402-5.2 2.1-7.903.802-2.8 1.302-5.3 1-5.703-.698-1.3-3.3.403-3.3 2.301 0 2.703-2.2 7.004-3.398 6.605-.602-.203-1.204-1.902-1.403-3.804-.3-3.102-2.597-6.903-4.199-6.903-.398 0-1.398.801-2.3 1.801zM123 423.895c-2.102.898-3.398 2.398-5.3 6.3-1.7 3.301-1.7 3.504.198 6.004 1 1.403 2.5 2.301 3.301 2.102.7-.2 2.602-.5 4.102-.7 3.398-.3 3 .2 5-5.203 2.398-6.105 2.199-8.203-.7-8.203-1.3 0-3-.203-3.8-.402-.7-.3-2-.2-2.801.102zm3.3 6.8c-.198 3.102-1.8 4.602-4 3.805-1.8-.703-1.6-3.305.4-5.504 2.198-2.5 3.8-1.7 3.6 1.7zm11-6.3c-1.8 2.398-3.5 7.601-3.1 10.003.3 2.2.698 2.301 8.8 2.5 10.102.2 12-.199 12-2.699 0-1 .7-3.101 1.5-4.601.8-1.602 1.5-3.504 1.5-4.203 0-1.801-3.102-1.102-4 .8-2.8 6.102-3.8 7.504-5.3 7.805-2 .398-2.302-2.805-.598-5.906.597-1.2.796-2.7.5-3.5-.903-2.301-3.5-.399-4.204 3.203-.296 1.898-1 3.398-1.5 3.398s-.898.703-.898 1.602c0 .902-.7 1.402-1.7 1.203-1.902-.402-2-1.102-.8-7.105.7-3.704-.3-4.903-2.2-2.5zm129.9 1.5c-2.302 5.902-1.9 7.203 3.1 8.703 4.098 1.3.098 5.804-4.3 4.902-2.3-.398-3-.2-3 1 0 3.805 7.3 3.602 11.2-.398 2.198-2.102 3.402-2.704 4.1-2 .598.597 2.302 1.097 3.802 1.097 1.898 0 3 .602 3.398 2.004.7 2.3 3.5 2.7 3.5.5 0-.902.602-1.8 1.398-2.101.903-.301 1.403-2.301 1.5-5.204.102-2.601.301-6.003.403-7.703.097-2-.301-3-1.403-3.3-1.796-.301-7.796 5.402-10.699 10.003-2 3.403-3.398 3.5-4.699.5-.602-1.199-2-2.3-3.3-2.5-1.7-.3-2.2-.902-2-2.503.198-1.801 1.1-2.301 4.1-2.5 5.302-.5 4.2-2.602-1.5-3-4.1-.301-4.6-.102-5.6 2.5zm20.8 6.203c0 2.199-2.5 4.5-3.898 3.703-1.801-1.102.796-5.504 3.199-5.606.398 0 .699.801.699 1.903zm11.102-6.903c-1.801 1.598-2.204 2.7-1.801 4.903.398 2.101 0 3.699-1.301 5.402-2.898 3.602-2.5 5.5 1.398 7.402 3.204 1.5 3.602 1.5 6.801-.398 3-1.8 3.301-2.305 3.102-6.504-.2-3.3.199-4.805 1.199-5.203.8-.3 1.5-1.7 1.5-3 0-4.606-6.602-6.106-10.898-2.602zm6.296 1.899c.903 1.402-.398 4.101-1.898 4.101s-2.398-1.898-1.7-3.8c.5-1.399 2.802-1.602 3.598-.301zm-1.796 9.605c1 2.403-1.403 4.703-3.704 3.403-1.5-.801-1.699-1.403-.898-2.903 1.3-2.402 3.8-2.601 4.602-.5zm-134.403-11.304c-.699.699-1.199 1.902-1.199 2.699 0 .8-.5 3.004-1.2 4.804-1.698 4.602.302 6.704 2.7 2.903 2.2-3.305 3.3-3.305 4.5-.102.5 1.399 1.398 2.5 2 2.5 1.602 0 2.3-2.699 1.2-4.601-.802-1.399-.4-2.602 1.402-5.004 3.097-4 1.296-5.801-1.903-2-2.8 3.203-3.5 3.203-3.898.402-.403-2.601-1.903-3.3-3.602-1.601zm16.801.101c-4.8 3.8-6.3 9.203-3.2 12.004 4 3.602 9.9.898 12.7-5.703 1.398-3.3 1.398-3.602-.7-5.602-2.402-2.203-6.5-2.601-8.8-.699zm5.8 4.602c.598 4.101-4.8 8.101-6.198 4.5-.903-2.5-.704-3.301 1.5-5.5 2.398-2.403 4.296-2.102 4.699 1zm126.598-3.903c-4.5 1.801-8.097 11.907-5.597 15.606 1.199 1.8 4.898 3.402 8.097 3.402 4 0 7.102-3.402 7.102-7.703 0-3.102-.2-3.3-3.5-3.3-1.898 0-3.5.398-3.5 1 0 .5.398 1 .898 1 1.5 0 2.204 3.202 1 4.6-2.597 3.204-6.796.302-6.898-4.8 0-1.703 1-3.504 3.102-5.305 2.699-2.199 3.699-2.5 7.5-1.898 2.898.398 4.398.3 4.398-.5 0-2.703-7.898-4.004-12.602-2.102zm20-.101c-3.097 1.3-6.5 6.605-7.097 10.906-1.301 9.805 12.398 11.504 17.199 2.2 1.898-3.7 1.898-10.403.102-11.903-1.903-1.602-7.602-2.305-10.204-1.203zm7.102 4.101c1.398 1.602 1.602 2.403.602 5.102-1.5 4.402-3.903 6.906-6.704 6.906-5.898 0-4.597-10.805 1.602-13.308 2.398-.899 2.602-.801 4.5 1.3zm-99.8-2.199c-2.098 2.3-2.2 5.602-.098 7.703 3.199 3.102 9.796-1.3 9.199-6.101-.301-2.504-.801-2.903-3.903-3.203-2.398-.2-4 .3-5.199 1.601zm5.8 2.2c.8 1.3-1.3 4.003-3.102 4.003-.796 0-1.398-1-1.398-2.504 0-1.8.5-2.5 1.898-2.5 1.102 0 2.301.5 2.602 1zm104.8-1.801c-2 4.304-4.6 14.609-4 16.109.7 1.8 8.5 3.3 9.9 1.898 1.5-1.5 0-3.199-2.802-3.199-1.898 0-2.398-.5-2.398-2.402 0-2.403 1.602-3.602 5.102-3.602 1.199 0 1.597-.5 1.296-1.5-.398-.8-1.5-1.5-2.5-1.5s-1.898-.703-1.898-1.5c0-1.601 3.398-3.804 4.3-2.804 1.2 1.101 3.7-.598 3.098-2.2-.398-1-2-1.5-4.796-1.5-3.403 0-4.5.399-5.301 2.2zM242 440.102c0 1.101 2.5 2.101 5.602 2.101 1.5 0 2.398-.601 2.398-1.5 0-1.101-1.102-1.504-4-1.504-2.2 0-4 .403-4 .903zM63 349.059c0 1.203.602 2.101 1.5 2.101.8 0 1.5-.398 1.5-.898 0-.504-.7-1.403-1.5-2.102-1.3-1-1.5-.902-1.5.899zm-5.5 1.203c-.398 1.097-.398 2.3-.102 2.597.301.403.602-.097.602-1 0-1 .5-1.699 1-1.699a1 1 0 001-1c0-1.8-1.898-1-2.5 1.102zm168.102 1.597c-.602 1.403-.5 1.504.5.602.699-.7 1-1.5.699-1.8-.301-.302-.903.198-1.2 1.198zM73 353.961c0 2.601-1 3.3-3.102 2.101-1.597-.8-1.898-.601-1.898 1 0 2.403 3.898 3.903 5.102 2 .898-1.5 1.199-6.902.398-6.902-.3 0-.5.8-.5 1.8zm33.3-1.102c-1.902.704-1.6 7.004.302 7.707 2 .797 6.398-.3 6.398-1.601 0-.5.7-1.602 1.5-2.504.898-.797 1.398-2 1.2-2.598-.7-2.203-2.2-1.601-3.5 1.301-1.7 3.8-4 3.899-4.4.2-.198-1.801-.8-2.704-1.5-2.505zm-12.8 1.301c-.602 1.004 1.602 5.004 2.7 5.004.5 0 .8-1.101.8-2.402 0-2.399-2.5-4.301-3.5-2.602zm102.102 1.504c.398.797.699 1.5.898 1.5.2 0 .5-.703.898-1.5.301-.902 0-1.504-.898-1.504s-1.2.602-.898 1.504zm-118 .399c-.903 1.402.398 4.101 2 4.101.796 0 1.398-1 1.398-2.5 0-2.5-2.3-3.504-3.398-1.601zm-15.5 2.3c0 1-.5 1.801-1 1.801-1.903 0-1.903 2.8 0 3.3 2.398.602 2.699 0 1.796-3.8-.296-1.7-.699-2.2-.796-1.3zm-8.801 1.403c-1.7 1.8-1.602 3.398.097 3.398 2 0 2.903-1.7 1.903-3.398-.7-1.204-1-1.204-2 0zm33.699 1c0 3.101 2.3 2.8 2.8-.403.2-1.5-.198-2.199-1.198-2.199-1.102 0-1.602.899-1.602 2.602zm0 0"/></svg>