<svg width="157" height="26" fill="none" xmlns="http://www.w3.org/2000/svg"><g clip-path="url(#clip0)"><path d="M52.781 1.2A4.142 4.142 0 0051.41.303 4.25 4.25 0 0049.786 0a4.877 4.877 0 00-2.066.5L44.414 2h-.206c-2.066.7-4.235 1.3-6.3 1.8a51.439 51.439 0 01-11.053 1.4H23.24l-3.408-.4-1.756-.3-4.545-1C10.019 2.5 9.5 6 9.5 6v3.5l1.242.4.62.2h1.033l.723.2h.413l.62.2h2.582l.93.2h1.342l3.099.2h4.751A75.804 75.804 0 0038.63 10l5.991-1.1 1.756-.5c6.61-1.4 7.437 1.2 7.437 1.2v-6a3.74 3.74 0 00-1.033-2.4z" fill="#fff"/><path d="M7.437 16.9l1.653-.4V6.1s.31-3.9 3.822-3l-1.963-.6a21.8 21.8 0 00-2.066-.8A16.7 16.7 0 016.095.5 4.877 4.877 0 004.029 0a4.25 4.25 0 00-1.625.303 4.141 4.141 0 00-1.37.897A3.753 3.753 0 00.2 2.544 3.687 3.687 0 000 4.1v11.7s.826 2.5 7.436 1.1z" fill="#fff"/><path d="M44 16l-1.29-.083-2.084-.408L37.398 15h-10.31a75.348 75.348 0 00-11.766.917l-6.144 1.12-1.667.51C.847 18.666.014 16.5.014 16.5v5.426a3.791 3.791 0 00.202 1.584c.18.509.465.975.84 1.37A4.534 4.534 0 003.97 26c.76.002 1.51-.172 2.187-.51l3.332-1.527h.208a50.401 50.401 0 016.352-1.935 58.493 58.493 0 0111.039-1.426h2.707c2.42.14 4.824.48 7.186 1.018l3.644.88c2.353.26 2.874-.5 3.374-2s0-4.5 0-4.5z" fill="#fff"/><path d="M46.377 9.1l-1.756.5V20s-.207 3.9-3.718 2.9l1.859.6 2.066.8 2.788 1.2c.681.306 1.42.476 2.17.5a3.827 3.827 0 001.583-.29 3.72 3.72 0 001.309-.91c.371-.371.663-.81.858-1.29.195-.48.29-.994.278-1.51V10.3s-.827-2.6-7.437-1.2z" fill="#fff"/><path d="M71.166 16.7h-4.441V7.8a.872.872 0 00-.233-.702.956.956 0 00-.697-.298h-1.549v12.3h7.85v-1.5a.886.886 0 00-.272-.637.945.945 0 00-.658-.263zM125.6 9.1a.687.687 0 00-.31-.6 3.994 3.994 0 00-1.033-.8l-.826-.4h-.31l-.723-.2h-1.343a6.373 6.373 0 00-2.477.491A6.211 6.211 0 00116.51 9a5.504 5.504 0 00-1.423 1.95 5.353 5.353 0 00-.436 2.35c-.014.818.142 1.63.459 2.388a6.084 6.084 0 001.386 2.026 6.317 6.317 0 002.092 1.341 6.48 6.48 0 002.467.445h1.446l.517-.2.516-.2.413-.2.517-.3c.334-.11.624-.32.826-.6a.784.784 0 00.31-.7 1.084 1.084 0 00-.31-.7l-.413-.3-.723-.6-.62.6a4.118 4.118 0 01-2.818.842 4.08 4.08 0 01-2.656-1.242 3.725 3.725 0 01-.93-2.5 3.746 3.746 0 011.186-2.623 3.993 3.993 0 012.739-1.077 3.579 3.579 0 012.479.9l.723.6.62-.6h.207l.206-.2c.192-.154.326-.365.382-.6a1.065 1.065 0 00-.072-.7zm30.367-2.3h-1.343l-3.305 4.3-3.099-4-.31-.3h-1.342a.959.959 0 00-.658.263.907.907 0 00-.201.292.87.87 0 00-.071.345v11.4h1.549a.947.947 0 00.658-.264.887.887 0 00.272-.636v-7.1l2.376 3 .826 1 3.099-4v7.1a.873.873 0 00.079.369.907.907 0 00.566.493.96.96 0 00.388.038H157V7.8a.89.89 0 00-.266-.743.958.958 0 00-.767-.257zm-77.777 0h-.31a.956.956 0 00-.657.263.899.899 0 00-.272.637V19H78.5a.945.945 0 00.657-.264.886.886 0 00.273-.636V6.8h-1.24zm11.982 0a6.513 6.513 0 00-4.529 1.816A6.102 6.102 0 0083.768 13c0 1.644.674 3.221 1.875 4.384a6.513 6.513 0 004.529 1.816 6.513 6.513 0 004.528-1.816A6.102 6.102 0 0096.576 13a6.203 6.203 0 00-1.905-4.356 6.614 6.614 0 00-4.5-1.844zm0 10a4.071 4.071 0 01-2.465-1.259 3.834 3.834 0 01-1.031-2.506 3.82 3.82 0 01.895-2.554A4.054 4.054 0 0189.965 9.1a3.938 3.938 0 011.502.213c.481.168.922.427 1.298.763.376.335.678.74.889 1.191a3.6 3.6 0 01.34 1.433.2.2 0 01.07.15.194.194 0 01-.07.15c.013.494-.076.986-.261 1.447a3.69 3.69 0 01-.822 1.234 3.83 3.83 0 01-1.252.828 3.93 3.93 0 01-1.487.29zm19.315-10h-.31a.955.955 0 00-.697.298.889.889 0 00-.233.702v6.8l-5.371-7.4-.31-.4h-1.239a.955.955 0 00-.697.298.889.889 0 00-.233.702v11.3h1.55a.945.945 0 00.657-.264.887.887 0 00.272-.636v-6.7l5.165 7.2.31.4h1.446a.945.945 0 00.657-.264.887.887 0 00.272-.636V6.8h-1.239zm26.029 0a6.27 6.27 0 00-2.468.437 6.1 6.1 0 00-2.077 1.363 5.81 5.81 0 00-1.417 2.007 5.64 5.64 0 00-.442 2.393c-.05.821.091 1.643.413 2.404a5.507 5.507 0 001.446 1.996 6.623 6.623 0 004.545 1.791 6.623 6.623 0 004.545-1.791 5.895 5.895 0 001.407-2.01 5.74 5.74 0 00.452-2.39 5.642 5.642 0 00-.464-2.339 5.801 5.801 0 00-1.395-1.961 6.614 6.614 0 00-4.545-1.9zm0 10a4.019 4.019 0 01-2.181-.64 3.831 3.831 0 01-1.445-1.706 3.684 3.684 0 01-.224-2.196 3.767 3.767 0 011.074-1.945 3.97 3.97 0 012.01-1.04 4.046 4.046 0 012.268.216c.717.288 1.33.775 1.761 1.4a3.7 3.7 0 01.363 3.565c-.197.461-.486.88-.851 1.233a3.93 3.93 0 01-1.273.824c-.476.19-.987.289-1.502.289z" fill="#F1EDF4"/></g><defs><clipPath id="clip0"><path fill="#fff" d="M0 0h157v26H0z"/></clipPath></defs></svg>