<svg xmlns="http://www.w3.org/2000/svg" xmlns:xlink="http://www.w3.org/1999/xlink" width="376" height="146pt" viewBox="0 0 282 146"><defs><symbol overflow="visible" id="a"><path d="M25.125-146.25h23.938V0H25.125zm0-56.938h23.938v30.422H25.125zm0 0"/></symbol><symbol overflow="visible" id="b"><path d="M57.656-19.203h69.5v-107.86H76.781v18.282c0 35.875-5.12 63.386-15.36 82.531zm-34.75 0c7.895-3.477 13.578-8.914 17.047-16.313 8.5-18.375 12.75-46.062 12.75-83.062v-27.672h98.516v127.047h19.14v56.156h-19.14V0H33.063v36.953H13.922v-56.156zm0 0"/></symbol><symbol overflow="visible" id="c"><path d="M91.094-168.984l-35.656 97.03h71.453zM76.266-194.97h29.796L180.11 0h-27.328l-17.687-50.016H47.5L29.797 0H2.078zm0 0"/></symbol><symbol overflow="visible" id="d"><path d="M9.89 0v-19.984c15.79-2.438 26.114-9.141 30.97-20.11 5.906-15.406 8.859-42.828 8.859-82.265v-23.891h98.515V0h-23.953v-127.063H73.656v14.5c0 37.606-3.82 64.856-11.453 81.75C54.047-12.788 36.61-2.52 9.891 0zm0 0"/></symbol><symbol overflow="visible" id="e"><path d="M149.797-79.14v11.765H39.687c1.04 16.531 6.008 29.133 14.907 37.797 8.894 8.668 21.281 13 37.156 13 9.195 0 18.11-1.129 26.734-3.39 8.633-2.27 17.207-5.673 25.72-10.204v22.735A142.747 142.747 0 01117.78.905 132.016 132.016 0 0190.311 3.78c-23.25 0-41.667-6.785-55.25-20.36-13.572-13.58-20.358-31.95-20.358-55.106 0-23.946 6.442-42.946 19.328-57 12.883-14.063 30.258-21.094 52.125-21.094 19.602 0 35.11 6.336 46.516 19 11.414 12.668 17.125 29.883 17.125 51.64zm-23.953-7.047c-.168-13.145-3.836-23.633-11-31.47-7.156-7.831-16.633-11.75-28.422-11.75-13.367 0-24.063 3.79-32.094 11.36-8.023 7.574-12.64 18.234-13.86 31.984zm0 0"/></symbol><symbol overflow="visible" id="f"><path d="M24.203-146.25h23.813v68.688l67.547-68.688h29.421L89.281-89.719 152.141 0h-26.813L73.656-73.781l-25.64 26.125V0H24.203zm0 0"/></symbol><symbol overflow="visible" id="g"><path d="M130.016-140.64v22.468c-6.774-3.75-13.563-6.555-20.375-8.422-6.813-1.875-13.688-2.812-20.625-2.812-15.532 0-27.594 4.945-36.188 14.828C44.242-104.703 39.953-90.844 39.953-73s4.29 31.71 12.875 41.594c8.594 9.886 20.656 14.828 36.188 14.828 6.937 0 13.812-.938 20.625-2.813 6.812-1.875 13.601-4.68 20.375-8.422v22.204a98.58 98.58 0 01-20.766 7.03c-7.156 1.571-14.766 2.36-22.828 2.36-21.961 0-39.402-6.914-52.328-20.75-12.93-13.843-19.39-32.52-19.39-56.031 0-23.852 6.523-42.613 19.577-56.281 13.063-13.664 30.957-20.5 53.688-20.5 7.375 0 14.578.765 21.61 2.297a98.539 98.539 0 0120.437 6.843zm0 0"/></symbol><symbol overflow="visible" id="h"><path d="M91.36-73.516c-19.344 0-32.75 2.22-40.22 6.657-7.46 4.437-11.187 12.011-11.187 22.718 0 8.532 2.797 15.305 8.39 20.313 5.594 5 13.208 7.5 22.844 7.5 13.27 0 23.915-4.719 31.938-14.156 8.031-9.446 12.047-22.008 12.047-37.688v-5.344zm47.765-9.921V0h-23.953v-22.203C109.71-13.316 102.906-6.766 94.75-2.547c-8.156 4.219-18.137 6.328-29.938 6.328-14.93 0-26.796-4.195-35.609-12.594C20.398-17.218 16-28.473 16-42.578c0-16.445 5.488-28.848 16.469-37.203 10.976-8.364 27.351-12.547 49.125-12.547h33.578v-2.344c0-11.062-3.625-19.613-10.875-25.656-7.242-6.05-17.406-9.078-30.5-9.078-8.336 0-16.45 1-24.344 3-7.898 2-15.492 5.008-22.781 9.015v-22.203c8.77-3.394 17.273-5.941 25.515-7.64 8.239-1.696 16.266-2.547 24.079-2.547 21.082 0 36.828 5.484 47.234 16.453 10.414 10.969 15.625 27.601 15.625 49.89zm0 0"/></symbol></defs><g fill="#0c8040"><use xlink:href="#a" x="157.078" y=".001"/><use xlink:href="#b" x="231.128" y=".001"/><use xlink:href="#c" x="415.407" y=".001"/><use xlink:href="#c" x="500.128" y=".001"/><use xlink:href="#d" x="682.455" y=".001"/><use xlink:href="#e" x="852.809" y=".001"/><use xlink:href="#f" x="1016.786" y=".001"/><use xlink:href="#g" x="1177.77" y=".001"/><use xlink:href="#h" x="1324.307" y=".001"/><use xlink:href="#c" x="1487.634" y=".001"/></g></svg>